<?xml version="1.0" encoding="UTF-8" standalone="no"?>
<!-- Created with Inkscape (http://www.inkscape.org/) -->

<svg
   xmlns:dc="http://purl.org/dc/elements/1.1/"
   xmlns:cc="http://creativecommons.org/ns#"
   xmlns:rdf="http://www.w3.org/1999/02/22-rdf-syntax-ns#"
   xmlns:svg="http://www.w3.org/2000/svg"
   xmlns="http://www.w3.org/2000/svg"
   xmlns:sodipodi="http://sodipodi.sourceforge.net/DTD/sodipodi-0.dtd"
   xmlns:inkscape="http://www.inkscape.org/namespaces/inkscape"
   version="1.1"
   id="svg2"
   width="785.59998"
   height="264.16"
   viewBox="0 0 785.59998 264.16"
   sodipodi:docname="TMC01.svg"
   inkscape:version="0.92.3 (2405546, 2018-03-11)">
  <metadata
     id="metadata8">
    <rdf:RDF>
      <cc:Work
         rdf:about="">
        <dc:format>image/svg+xml</dc:format>
        <dc:type
           rdf:resource="http://purl.org/dc/dcmitype/StillImage" />
        <dc:title />
      </cc:Work>
    </rdf:RDF>
  </metadata>
  <defs
     id="defs6" />
  <sodipodi:namedview
     pagecolor="#ffffff"
     bordercolor="#666666"
     borderopacity="1"
     objecttolerance="10"
     gridtolerance="10"
     guidetolerance="10"
     inkscape:pageopacity="0"
     inkscape:pageshadow="2"
     inkscape:window-width="1920"
     inkscape:window-height="1016"
     id="namedview4"
     showgrid="false"
     inkscape:zoom="5.641548"
     inkscape:cx="339.61429"
     inkscape:cy="62.760849"
     inkscape:window-x="0"
     inkscape:window-y="27"
     inkscape:window-maximized="1"
     inkscape:current-layer="layer2" />
  <g
     inkscape:groupmode="layer"
     id="layer2"
     inkscape:label="Layer 2"
     style="display:inline">
    <path
       style="display:inline;fill:#4b9461;stroke-width:0.16;fill-opacity:1"
       d="m 163.89014,217.43622 c -9.48604,-0.91881 -17.06266,-6.47012 -20.29389,-14.86908 -0.28928,-0.75192 -0.72924,-2.23114 -0.9777,-3.28714 -0.43005,-1.82784 -0.45167,-2.10432 -0.45043,-5.76 0.001,-4.21718 0.16041,-5.34678 1.18126,-8.39382 1.90424,-5.68378 6.32726,-10.59986 11.86496,-13.18764 7.50247,-3.50593 17.49868,-3.23931 24.22566,0.64615 1.33078,0.76865 3.55235,2.4283 4.23284,3.16219 l 0.39285,0.42368 -2.55285,2.56565 c -1.40406,1.4111 -3.17126,3.13393 -3.9271,3.82853 l -1.37424,1.26288 -0.94576,-0.80458 c -1.86219,-1.58424 -4.0767,-2.56602 -6.69038,-2.9661 -6.98716,-1.06955 -12.83933,2.66957 -14.6803,9.37967 -0.47296,1.7239 -0.58265,5.19713 -0.22431,7.10297 1.03158,5.48664 4.28302,9.16276 9.30873,10.52458 1.80687,0.48962 5.16004,0.48771 7.17405,-0.004 3.91546,-0.95606 6.34219,-3.14544 7.6276,-6.88157 0.16439,-0.47774 0.29887,-0.92937 0.29887,-1.0036 0,-0.0742 -2.556,-0.13494 -5.68,-0.13494 h -5.68 v -4.24 -4.24 h 11.18726 11.18726 l 0.11522,1.07592 c 0.1877,1.75254 -0.0357,6.01329 -0.40746,7.77014 -1.02982,4.86738 -2.96264,8.54775 -6.1518,11.71394 -2.53856,2.52027 -5.22407,4.16291 -8.6184,5.27161 -2.96314,0.96788 -6.82626,1.36576 -10.14194,1.04461 z"
       id="path104" />
    <path
       style="display:inline;fill:#4b9461;stroke-width:0.16;fill-opacity:1"
       d="M 401.83984 169.49219 C 397.64749 169.53545 393.46661 170.48362 389.94141 172.33008 C 383.76688 175.56422 379.60157 181.16754 378.05469 188.32031 C 377.73888 189.78077 377.69141 190.45953 377.69141 193.51953 C 377.69141 196.58231 377.73798 197.25891 378.05469 198.7207 C 380.33254 209.23436 388.35277 216.3265 399.19922 217.41992 C 409.85344 218.49397 419.43373 213.72749 423.90234 205.12695 C 428.20414 196.84741 427.42439 186.08306 422 178.85547 C 419.9412 176.11229 416.97317 173.6584 413.80469 172.08398 C 410.23605 170.31074 406.0322 169.44892 401.83984 169.49219 z M 401.50195 180.09375 C 402.18172 180.06936 402.87426 180.09425 403.57422 180.16992 C 406.67054 180.50467 409.00899 181.54844 411.09766 183.5293 C 413.36287 185.67757 414.65755 188.40318 415.05664 191.86328 C 415.57208 196.33218 414.09977 200.6646 411.09766 203.51172 C 409.03302 205.46978 406.65364 206.53701 403.59961 206.87695 C 402.80761 206.96512 402.05192 207.02878 401.91992 207.01758 C 399.25163 206.79064 397.83027 206.44333 396.08008 205.58984 C 392.89261 204.03546 390.58265 201.16128 389.56445 197.48438 C 389.2739 196.43508 389.2207 195.81255 389.2207 193.51953 C 389.2207 190.38327 389.45291 189.24599 390.55273 186.99609 C 392.5891 182.83035 396.74356 180.26451 401.50195 180.09375 z "
       id="path102" />
    <path
       style="display:inline;fill:#4b9461;stroke-width:0.16;fill-opacity:1"
       d="m 712.00795,217.10623 c -8.20373,-0.78998 -15.19661,-5.43867 -18.71611,-12.44198 -2.84866,-5.66839 -3.31623,-13.15146 -1.21711,-19.4785 2.23829,-6.74653 7.66012,-12.08803 14.48623,-14.2716 6.21803,-1.98905 12.87155,-1.62381 18.69333,1.02619 2.21659,1.00896 5.63211,3.50404 6.89651,5.03797 l 0.46878,0.56871 -1.41933,1.41275 -1.41931,1.41273 -1.59046,-1.50622 c -2.69512,-2.55242 -5.80847,-4.18326 -9.4705,-4.96085 -2.3372,-0.49629 -5.93729,-0.49867 -8.27739,-0.005 -8.07152,1.70112 -13.60266,7.36707 -15.17032,15.5401 -0.38989,2.03267 -0.39766,5.89677 -0.0161,7.99374 1.5331,8.42547 7.78129,14.53112 16.12435,15.7565 5.0912,0.74776 10.45506,-0.39514 14.11642,-3.00783 3.51182,-2.50598 5.92481,-6.69195 6.7458,-11.70241 0.12978,-0.792 0.23626,-1.674 0.23661,-1.96 v -0.52 h -7.92 -7.92 v -1.84 -1.84 h 10.08503 c 9.35697,0 10.09257,0.0197 10.18972,0.27288 0.16634,0.43345 -0.23187,4.93208 -0.59043,6.67024 -1.68899,8.18749 -6.77139,14.25051 -14.00432,16.7064 -1.81094,0.61489 -3.35918,0.93101 -5.6,1.14339 -1.95528,0.18533 -2.72921,0.18422 -4.71203,-0.007 z"
       id="path98" />
    <path
       style="display:inline;fill:#4b9461;stroke-width:0.16;fill-opacity:1"
       d="m 61.400682,198.68 -0.04068,-18.12 -6.919999,-0.0417 -6.92,-0.0417 v -5.1183 -5.1183 h 19.359999 19.36 v 5.12 5.12 h -6.88 -6.88 v 18.16 18.16 H 66.960685 61.44137 Z"
       id="path96" />
    <path
       style="display:inline;fill:#4b9461;stroke-width:0.16;fill-opacity:1"
       d="M 105.67969 170.24219 L 96.845703 193.24023 C 91.986875 205.88964 87.965213 216.36637 87.908203 216.52148 C 87.810231 216.78808 88.121787 216.80142 93.597656 216.76172 L 99.390625 216.7207 L 100.89648 212.56055 C 101.72416 210.27255 102.51504 208.09345 102.6543 207.71875 L 102.9082 207.03711 L 112.21289 207.07812 L 121.51953 207.12109 L 123.26758 211.96094 L 125.01367 216.80078 L 130.91992 216.80078 C 134.59587 216.80078 136.80664 216.74334 136.77344 216.64844 C 136.74411 216.56454 132.72384 206.08957 127.83984 193.37109 L 118.96094 170.24609 L 112.32031 170.24414 L 105.67969 170.24219 z M 112.28516 181.40039 C 112.30863 181.38539 112.32031 181.41042 112.32031 181.4707 C 112.32031 181.5532 117.30237 195.38121 117.74219 196.51953 L 117.91211 196.96094 L 112.23633 196.96094 C 109.1145 196.96094 106.56055 196.92531 106.56055 196.88281 C 106.56055 196.84028 107.78792 193.40166 109.28906 189.24219 C 111.3358 183.57088 112.12081 181.50541 112.28516 181.40039 z "
       id="path94" />
    <path
       style="display:inline;fill:#4b9461;stroke-width:0.16;fill-opacity:1"
       d="M 212.40039 170.24219 L 203.56641 193.24023 C 198.7076 205.88964 194.68395 216.36637 194.62695 216.52148 C 194.52898 216.78808 194.84251 216.80142 200.31836 216.76172 L 206.11133 216.7207 L 207.61523 212.56055 C 208.44291 210.27255 209.23574 208.09345 209.375 207.71875 L 209.62695 207.03711 L 218.93359 207.07812 L 228.24023 207.12109 L 229.98633 211.96094 L 231.73242 216.80078 L 237.64062 216.80078 C 241.31659 216.80078 243.52734 216.74334 243.49414 216.64844 C 243.46481 216.56454 239.44455 206.08957 234.56055 193.37109 L 225.67969 170.24609 L 219.03906 170.24414 L 212.40039 170.24219 z M 219.00586 181.40039 C 219.02934 181.38539 219.03906 181.41042 219.03906 181.4707 C 219.03906 181.5532 224.02307 195.38121 224.46289 196.51953 L 224.63281 196.96094 L 218.95508 196.96094 C 215.83327 196.96094 213.2793 196.92531 213.2793 196.88281 C 213.2793 196.84028 214.50863 193.40166 216.00977 189.24219 C 218.0565 183.57088 218.84152 181.50541 219.00586 181.40039 z "
       id="path90" />
    <path
       style="display:inline;fill:#4b9461;stroke-width:0.16;fill-opacity:1"
       d="m 253.59999,193.52 v -23.28 h 5.26058 5.26058 l 10.61942,14.16096 10.61942,14.16096 0.0409,-14.16096 0.0409,-14.16096 h 5.51914 5.51913 v 23.28 23.28 h -5.26057 -5.26058 l -10.61942,-14.16096 -10.61943,-14.16096 -0.0409,14.16096 -0.0409,14.16096 h -5.51914 -5.51914 z"
       id="path86" />
    <path
       style="display:inline;fill:#4b9461;stroke-width:0.16;fill-opacity:1"
       d="m 310.55999,193.52 v -23.28 h 5.52 5.52 v 23.28 23.28 h -5.52 -5.52 z"
       id="path84" />
    <path
       style="display:inline;fill:#4b9461;stroke-width:0.16;fill-opacity:1"
       d="m 345.72068,198.68 -0.0407,-18.12 -6.92,-0.0417 -6.92,-0.0417 v -5.1183 -5.1183 h 19.36 19.36 v 5.12 5.12 h -6.88 -6.88 v 18.16 18.16 h -5.51931 -5.51933 z"
       id="path82" />
    <path
       style="display:inline;fill:#4b9461;stroke-width:0.16;fill-opacity:1"
       d="m 464.31999,193.52 v -23.28 h 3.01565 3.01563 l 8.93509,18.08 c 4.91428,9.944 8.97524,18.07816 9.02435,18.07592 0.0491,-0.002 4.08697,-8.12024 8.97305,-18.04 l 8.88376,-18.03592 3.07624,-0.0435 3.07623,-0.0435 V 193.51654 216.8 h -2 -2 v -20.88944 c 0,-11.4892 -0.0555,-20.85517 -0.12327,-20.81326 -0.0678,0.0419 -4.08179,8.1814 -8.92,18.08779 l -8.79673,18.01161 -2.20367,-0.0383 -2.20366,-0.0384 -8.83634,-17.96373 -8.83633,-17.96374 -0.0406,20.80374 -0.0406,20.80373 h -1.99939 -1.99941 z"
       id="path80" />
    <path
       style="display:inline;fill:#4b9461;stroke-width:0.16;fill-opacity:1"
       d="m 531.67999,193.52 v -23.28 h 2 2 v 23.28 23.28 h -2 -2 z"
       id="path78" />
    <path
       style="display:inline;fill:#4b9461;stroke-width:0.16;fill-opacity:1"
       d="m 555.03999,193.52 v -23.28 l 1.8,0.007 1.8,0.007 15.28,19.79304 15.27999,19.79304 0.0406,-19.8 0.0406,-19.8 h 1.99938 1.99937 v 23.28 23.28 h -1.82136 -1.82136 l -15.25863,-19.77427 -15.25864,-19.77427 -0.0406,19.77427 -0.0406,19.77427 h -1.99938 -1.99937 v -23.28 z"
       id="path76" />
    <path
       style="display:inline;fill:#4b9461;stroke-width:0.16;fill-opacity:1"
       d="m 612.63998,193.52 v -23.28 h 2 2 v 23.28 23.28 h -2 -2 z"
       id="path74" />
    <path
       style="display:inline;fill:#4b9461;stroke-width:0.16;fill-opacity:1"
       d="m 635.99998,193.52 v -23.28 l 1.8,0.007 1.8,0.007 15.28,19.79304 15.28,19.79304 0.0406,-19.8 0.0406,-19.8 h 1.99938 1.99937 v 23.28 23.28 h -1.82136 -1.82136 l -15.25864,-19.77427 -15.25864,-19.77427 -0.0406,19.77427 -0.0406,19.77427 h -1.99938 -1.99938 v -23.28 z"
       id="path72" />
    <path
       style="display:inline;fill:#4b4e53;stroke-width:0.16;fill-opacity:1"
       d="m 387.35999,142.30474 c -0.308,-0.0362 -1.28,-0.14155 -2.16,-0.23422 -6.24014,-0.65714 -13.24936,-3.04658 -18.88,-6.43619 -3.6476,-2.19583 -6.56466,-4.52996 -9.76584,-7.8143 -1.81683,-1.86403 -4.63328,-5.23424 -4.49214,-5.37538 0.0269,-0.0269 1.30192,0.0936 2.83342,0.26776 4.80306,0.54615 6.4544,0.65237 12.78456,0.82231 12.53757,0.33657 20.79984,-0.12639 36,-2.0172 2.42,-0.30104 5.408,-0.6308 6.64,-0.73281 2.84518,-0.23559 9.80611,-0.0989 12.72,0.24975 2.4392,0.29186 6.71053,0.98273 6.83301,1.10522 0.23222,0.23221 -3.23922,4.31721 -5.73434,6.74787 -2.45821,2.39469 -4.07101,3.69607 -6.93867,5.59889 -5.99677,3.9791 -12.70605,6.50964 -19.92738,7.51603 -1.73976,0.24246 -8.63153,0.45261 -9.91262,0.30227 z"
       id="path70" />
    <path
       style="display:inline;fill:#a95521;stroke-width:0.16;fill-opacity:1"
       d="m 374.23999,118.30168 c -4.74141,-0.27401 -10.17994,-0.90448 -15.84,-1.83624 -4.19744,-0.691 -10.88817,-2.01889 -11.07089,-2.19721 -0.20111,-0.19627 -1.54271,-3.66715 -2.0341,-5.26248 -0.53688,-1.74297 -1.31816,-4.87593 -1.23635,-4.95775 0.15342,-0.15342 12.21881,-1.02456 19.46134,-1.40514 12.2419,-0.64328 26.4504,-0.90173 31.84,-0.57916 10.5203,0.62965 21.21058,2.67227 36.4,6.95505 4.81921,1.35881 4.44921,0.98929 3.45605,3.45163 -0.95888,2.37728 -1.68565,3.77364 -1.94533,3.73754 -0.1269,-0.0176 -1.41872,-0.14764 -2.87072,-0.2889 -8.32739,-0.8101 -19.62862,-0.49382 -31.36,0.87766 -4.07859,0.47681 -8.71654,0.93136 -12.32,1.20742 -3.20525,0.24556 -10.40824,0.41731 -12.48,0.29758 z"
       id="path68" />
    <path
       style="display:inline;fill:#d68230;stroke-width:0.16;fill-opacity:1"
       d="m 436.07999,104.93866 c -2.9917,-0.67601 -12.6477,-2.61151 -16.64246,-3.33591 -12.03908,-2.183118 -20.93488,-2.981659 -36.63754,-3.288808 -5.5917,-0.109374 -21.90883,0.221239 -35.43872,0.718048 -2.15529,0.07914 -3.95529,0.107434 -4,0.06287 -0.0447,-0.04456 -0.10526,-1.695138 -0.13459,-3.667943 l -0.0533,-3.586918 1.6533,-4.8e-4 c 2.07968,-6.4e-4 8.54864,-0.268022 11.81331,-0.488262 1.364,-0.09202 6.368,-0.594189 11.12,-1.115935 20.25949,-2.22439 28.03298,-2.778413 39.12,-2.788107 7.38421,-0.0064 8.81739,0.0639 14.72,0.722614 4.45805,0.497506 12.9351,1.761464 16.12,2.403548 l 0.84,0.169347 v 3.491702 c 0,1.920437 -0.0743,4.237333 -0.16507,5.148658 -0.18026,1.809206 -0.76978,5.392976 -0.93287,5.670896 -0.0714,0.12176 -0.48611,0.0872 -1.38206,-0.11528 z"
       id="path66" />
    <path
       style="display:inline;fill:#4b9461;stroke-width:0.16;fill-opacity:1"
       d="m 343.5205,88.04 c 0.004,-0.839662 1.05408,-5.561102 1.6688,-7.500341 l 0.4122,-1.300339 2.31459,-0.579419 c 6.35006,-1.589626 9.95665,-2.937386 24.84488,-9.284362 14.13486,-6.025813 18.67217,-7.668049 25.23902,-9.135032 7.56963,-1.690995 14.07683,-2.263565 21.03221,-1.850627 l 3.27221,0.19427 1.1162,0.987925 c 2.41736,2.139547 6.01565,6.49576 8.01888,9.707925 1.25517,2.012677 3.05202,5.582723 3.89317,7.73511 0.7869,2.013543 2.01664,6.008919 1.88882,6.136727 -0.048,0.04803 -1.11652,0.0049 -2.3744,-0.09578 -4.64274,-0.371715 -11.38247,-0.507242 -16.75544,-0.336931 -9.69936,0.307448 -16.13706,0.78775 -41.85165,3.122457 -18.34147,1.66528 -27.06838,2.318413 -30.97774,2.318413 -0.95824,0 -1.74203,-0.054 -1.74175,-0.12 z"
       id="path64" />
    <path
       style="display:inline;fill:#545386;stroke-width:0.16;fill-opacity:1"
       d="m 350.48465,69 c 4.06304,-6.351586 9.5168,-11.650005 15.93076,-15.476997 13.98559,-8.344729 31.37837,-8.972456 45.95122,-1.658433 1.4016,0.703451 4.69584,2.632574 4.80853,2.815896 0.0404,0.06574 -1.52146,0.128361 -3.47085,0.13915 -9.17467,0.05077 -19.35589,1.618864 -29.62432,4.562678 -1.232,0.353199 -6.128,1.927098 -10.88,3.497557 -10.36696,3.426115 -15.326,4.903264 -20.37152,6.068069 -2.69085,0.621206 -2.70813,0.62159 -2.34382,0.05208 z"
       id="path15" />
  </g>
</svg>
